# xmcd
# Copyright (C) 1995-1998 Ti Kan
#
# Track frame offsets:
#       150
#       38019
#       53577
#       76827
#       86094
#       103374
#       120175
#       136547
#       157262
#       180233
#       224183
#
# Disc length: 3166 seconds
#
# Revision: 0
# Processed by: cddbd v1.4PL0 Copyright (c) Steve Scherf et al.
# Submitted via: CD-Transfer v1.0
#
DISCID=8a0c5c0b
DTITLE=Shambhala - Shambhala
DYEAR=03
DGENRE=
TTITLE0=Perdu Dans Le Blue
TTITLE1=Post Lux Tenebras
TTITLE2=Que Ce Monde Est Joli
TTITLE3=Mauvais Temps
TTITLE4=Entre Deux Eaux
TTITLE5=Tout Ce Qu'on Est
TTITLE6=Sad Song
TTITLE7=Tant Bien Que Mal
TTITLE8=Island
TTITLE9=Bleu
TTITLE10=Cathédrales
EXTD=
EXTT0=
EXTT1=
EXTT2=
EXTT3=
EXTT4=
EXTT5=
EXTT6=
EXTT7=
EXTT8=
EXTT9=
EXTT10=
PLAYORDER=
